<svg width="47" height="26" viewBox="0 0 47 26" fill="none" xmlns="http://www.w3.org/2000/svg">
<path d="M42.4678 0.638672C43.3198 -0.213175 44.7017 -0.213312 45.5537 0.638672C46.4055 1.49067 46.4055 2.87259 45.5537 3.72461L24.6387 24.6396L24.4727 24.7891C23.9584 25.2083 23.2976 25.3583 22.6787 25.2383C22.5412 25.2116 22.4057 25.1714 22.2744 25.1182C22.2088 25.0916 22.1443 25.0616 22.0811 25.0283C21.9545 24.9618 21.8329 24.8822 21.7188 24.7891C21.6617 24.7425 21.6059 24.6928 21.5527 24.6396L0.638672 3.72461C-0.213214 2.87259 -0.213214 1.49069 0.638672 0.638672C1.49059 -0.213007 2.87162 -0.212856 3.72363 0.638672L23.0957 20.0107L42.4678 0.638672Z" fill="white"/>
</svg>
