<svg width="1554" height="210" viewBox="0 0 1554 210" fill="none" xmlns="http://www.w3.org/2000/svg">
<path d="M1333.53 166.355H1336.92C1331.31 168.313 1324.99 169.359 1318.04 169.359C1315.58 169.359 1313.21 169.225 1310.92 168.969C1321.99 167.759 1330 161.626 1333.17 157.343H1333.53V166.355ZM1361.8 144.99C1364.75 147.078 1368.38 148.153 1372.64 148.153C1374.29 148.153 1375.83 147.987 1377.29 147.664V166.355H1391.18C1385.57 168.313 1379.25 169.359 1372.29 169.359C1365.37 169.359 1359.08 168.314 1353.5 166.355H1361.8V144.99ZM1465.83 72.8701C1495.7 72.8703 1513.9 92.3098 1513.9 120.762C1513.9 149.39 1495.7 169.359 1465.3 169.359C1440.86 169.359 1424.23 156.339 1419 135.917C1420.24 131.221 1420.89 126.145 1420.89 120.762C1420.89 115.594 1420.29 110.724 1419.12 106.214C1424.51 86.034 1441.15 72.8701 1465.83 72.8701ZM125.313 101.382C125.692 104.183 125.887 107.222 125.887 110.512V113.304C113.999 116.097 103.903 120.332 98.4941 128.104V122.175C94.7831 123.589 90.5422 124.65 83.1201 126.417C72.6936 128.891 68.9824 133.309 68.9824 139.671C68.9825 146.563 73.4002 149.744 80.6455 149.744C86.5857 149.744 91.208 147.11 94.2598 143.1C94.3226 148.218 95.5217 152.751 97.709 156.544C91.2834 163.903 81.2453 169.183 68.8057 169.183C51.1336 169.183 40 158.756 40 142.675C40 123.942 55.3751 116.697 74.6377 112.633C83.3909 110.757 95.3209 109.433 97.9609 102.916C97.8845 103.617 97.8263 104.323 97.79 105.033H124.652C124.784 103.714 125.002 102.497 125.313 101.382ZM125.907 146.892C127.921 148.819 131 149.744 134.901 149.744C138.167 149.744 141.035 148.947 143.463 147.563V163.664C137.825 167.073 130.923 169.183 123.062 169.183C117.829 169.183 113.17 168.268 109.203 166.563C111.12 167.01 113.365 167.239 115.99 167.239C120.055 167.239 125.886 166.709 131.541 165.648V152.218C130.481 152.394 129.951 152.395 129.244 152.395C126.708 152.395 126.022 150.688 125.907 146.892ZM241.534 96.0332C233.566 96.2986 228.381 101.058 227.667 111.48C227.129 111.587 226.592 111.692 226.06 111.796C226.016 112.519 225.994 113.269 225.994 114.046V127.713C226.5 127.527 227.03 127.35 227.582 127.179V149.739C227.036 149.732 226.506 149.707 225.994 149.662V166.355H227.582V149.739C227.691 149.741 227.801 149.744 227.911 149.744C239.221 149.744 245.76 140.201 245.76 129.774V122.175C242.049 123.589 237.808 124.65 230.386 126.417C229.391 126.653 228.457 126.907 227.582 127.179V114.046C227.582 113.155 227.611 112.3 227.667 111.48C236.465 109.733 245.76 107.439 245.76 100.085C245.76 98.696 245.454 97.4464 244.833 96.3672C251.542 97.6583 253.562 102.72 253.562 114.223V165.618C249.249 163.734 247.193 160.251 246.29 155.398H245.937C239.575 163.351 229.149 169.183 216.071 169.183C209.5 169.183 203.833 167.74 199.307 165.103V120.811C205.354 116.936 213.235 114.462 221.903 112.633C223.23 112.348 224.63 112.075 226.06 111.796C226.727 100.841 232.373 96.0205 240.662 96.0205C240.959 96.0205 241.25 96.0251 241.534 96.0332ZM319.004 166.355H338.035V149.603C341.386 149.192 344.25 147.896 346.572 145.981V162.161C340.555 166.444 332.839 169.183 323.878 169.183C318.373 169.183 313.503 168.171 309.406 166.292V119.453C312.297 117.872 315.527 116.551 319.004 115.424V166.355ZM380.979 146.892C382.993 148.819 386.072 149.744 389.974 149.744C393.239 149.744 396.106 148.947 398.533 147.564V163.665C392.895 167.073 385.994 169.183 378.134 169.183C372.901 169.183 368.242 168.268 364.275 166.563C366.192 167.01 368.437 167.239 371.062 167.239C375.127 167.239 380.958 166.709 386.613 165.648V152.218C385.553 152.394 385.023 152.395 384.316 152.395C381.78 152.395 381.094 150.688 380.979 146.892ZM474.709 166.356C476.406 167.123 478.235 167.741 480.185 168.202C477.341 168.837 474.321 169.183 471.144 169.183C465.703 169.183 460.883 168.193 456.816 166.356H474.709ZM501.362 155.398C502.161 159.689 503.861 162.91 507.226 164.9C502.028 167.575 495.897 169.183 489.036 169.183C485.866 169.183 482.907 168.846 480.185 168.202C489.047 166.223 496.192 161.419 501.009 155.398H501.362ZM558.299 166.356C553.837 168.148 548.8 169.183 543.292 169.183C538.059 169.183 533.4 168.268 529.434 166.563C531.35 167.01 533.595 167.239 536.221 167.239C539.249 167.239 543.257 166.945 547.442 166.356H558.299ZM651.068 99.9365C651.25 101.621 651.345 103.38 651.345 105.21V110.758C649.666 111.135 647.96 111.47 646.293 111.795C646.246 112.518 646.223 113.269 646.223 114.046V127.714C647.532 127.234 648.993 126.802 650.616 126.417C650.863 126.358 651.105 126.299 651.345 126.242V149.472C650.324 149.649 649.256 149.744 648.142 149.744C647.478 149.744 646.838 149.716 646.223 149.662V166.355H651.312C646.849 168.148 641.811 169.183 636.302 169.183C630.861 169.183 626.04 168.193 621.973 166.355H623.069V118.803C628.523 116.045 635.066 114.124 642.134 112.633C643.462 112.348 644.862 112.074 646.293 111.795C646.643 106.413 648.288 102.513 651.068 99.9365ZM917.449 144.988C919.702 152.624 924.737 159.265 933.31 163.648C926.655 167.287 917.659 169.183 906.511 169.183C898.337 169.183 891.451 168.165 885.719 166.355H905.6V149.738C905.726 149.74 905.854 149.744 905.981 149.744C912.46 149.744 916.142 148.13 917.449 144.988ZM965.241 149.324C967.311 158.647 972.197 164.178 980.39 166.623C974.874 168.312 968.313 169.183 960.767 169.183C952.593 169.183 945.707 168.165 939.975 166.355H964.978V149.375C965.066 149.359 965.154 149.341 965.241 149.324ZM1043.62 168.598C1046.16 168.906 1048.86 169.097 1051.71 169.158C1051.21 169.174 1050.7 169.183 1050.18 169.183C1047.89 169.183 1045.7 168.985 1043.62 168.598ZM1078.94 154.794C1079.34 155.564 1079.77 156.303 1080.22 157.014V163.84C1073.6 167.353 1064.73 169.183 1053.78 169.183C1053.08 169.183 1052.39 169.173 1051.71 169.158C1065.87 168.719 1074.16 162.221 1078.94 154.794ZM1108.5 143.724C1109.47 144.477 1110.58 145.042 1111.83 145.441C1113.07 154.978 1116.64 161.206 1122.95 164.681C1118.22 167.426 1112.16 169.183 1104.43 169.183C1099.38 169.183 1094.79 168.22 1090.83 166.355H1108.5V143.724ZM1155.34 97.0811H1139.61V136.313C1139.61 146.033 1143.32 146.916 1148.8 146.916C1151.45 146.916 1153.04 146.74 1156.4 146.21V166.179C1156.14 166.24 1155.88 166.298 1155.63 166.355H1162.75V147.373C1164.24 147.773 1165.83 147.977 1167.53 147.977C1168.16 147.977 1168.77 147.947 1169.37 147.892C1171.08 154.634 1174.45 159.872 1179.1 163.466C1174.32 166.578 1167.69 169.183 1159.75 169.183C1155.68 169.183 1151.85 168.652 1148.3 167.629C1150.67 167.347 1153.07 166.932 1155.63 166.355H1144.64C1145.83 166.841 1147.05 167.266 1148.3 167.629C1145.42 167.974 1142.59 168.123 1139.61 168.123C1132.73 168.123 1127.22 167.031 1122.95 164.681C1126.57 162.584 1129.41 159.91 1131.65 156.999C1132.54 158.031 1133.48 159.002 1134.48 159.91V166.355H1144.64C1140.86 164.807 1137.46 162.643 1134.48 159.91V153.277H1134.12C1133.4 154.543 1132.57 155.791 1131.65 156.999C1128.76 153.677 1126.38 149.726 1124.56 145.205C1130.94 143.112 1134.48 137.668 1134.48 128.184V82.3184C1137.46 79.5863 1140.86 77.4238 1144.64 75.875H1155.34V97.0811ZM1214.54 73.0508C1214.36 73.0482 1214.19 73.0469 1214.01 73.0469C1207.44 73.0469 1201.52 74.4228 1196.38 77.0244V128.007C1196.38 141.614 1201.15 146.209 1210.52 146.209C1211.62 146.209 1212.66 146.151 1213.66 146.036C1207.2 142.483 1203.58 134.083 1203.58 121.115C1203.58 107.574 1207.53 99.0121 1214.54 95.75V145.919C1214.25 145.963 1213.96 146.002 1213.66 146.036C1213.95 146.193 1214.24 146.341 1214.54 146.479V165.455C1213.92 165.772 1213.27 166.073 1212.61 166.355H1198.9C1194.03 164.36 1189.78 161.342 1186.26 157.405V157.343H1186.21C1186.23 157.364 1186.24 157.384 1186.26 157.405V166.355H1198.9C1201.08 167.25 1203.39 167.939 1205.82 168.412C1203.27 168.91 1200.49 169.183 1197.44 169.183C1190.22 169.183 1183.96 167.222 1179.1 163.466C1182.2 161.448 1184.52 159.219 1185.91 157.343H1186.21C1182.95 153.685 1180.31 149.241 1178.38 144.093C1183.13 139.838 1185.73 132.123 1185.73 121.115C1185.73 110.107 1183.13 102.39 1178.38 98.1357C1180.31 92.988 1182.95 88.5444 1186.21 84.8867H1186.26V84.8232C1189.16 81.5813 1192.56 78.9624 1196.38 77.0244V75.874H1186.26V40H1214.54V73.0508ZM1227.49 166.355H1227.92C1223.97 168.036 1219.28 169.183 1214.01 169.183C1211.15 169.183 1208.42 168.92 1205.82 168.412C1208.3 167.927 1210.56 167.226 1212.61 166.355H1214.54V165.455C1220.42 162.457 1224.43 157.981 1227.13 153.277H1227.49V166.355ZM1299.24 166.355C1302.85 167.62 1306.75 168.502 1310.92 168.969C1309.66 169.107 1308.36 169.183 1307.02 169.183C1301.5 169.183 1296.44 168.21 1291.91 166.355H1299.24ZM1018.33 137.021C1018.33 156.552 1024.96 165.858 1040.18 167.752C1041.29 168.096 1042.44 168.377 1043.62 168.598C1019.46 165.655 1009.69 151.954 1009.07 136.312H1018.33V137.021ZM672.758 75.2256C686.166 79.5708 693.383 90.3076 693.383 110.512V145.502C693.383 150.273 693.913 152.395 696.74 152.395C697.447 152.395 697.977 152.394 699.037 152.218V165.648C697.597 165.918 696.146 166.154 694.715 166.355H705.601V146.393C706.922 146.826 708.483 146.916 710.223 146.916C710.476 146.916 710.72 146.913 710.957 146.909V166.355H717.048C711.369 167.636 706.444 168.123 701.033 168.123C696.889 168.123 693.241 167.725 690.062 166.897C691.558 166.759 693.124 166.579 694.715 166.355H688.227C688.82 166.554 689.432 166.733 690.062 166.897C687.621 167.124 685.365 167.239 683.486 167.239C672.176 167.239 667.934 162.997 666.521 155.398H666.167C662.492 159.992 657.46 163.879 651.345 166.342V149.472C660.677 147.852 665.991 139.173 665.991 129.774V122.175C662.403 123.542 658.319 124.578 651.345 126.242V110.758C658.962 109.047 665.991 106.48 665.991 100.085C665.991 98.9923 665.8 97.9862 665.417 97.0811H669.688C670.841 97.5418 671.864 98.1638 672.758 98.9668V137.021C672.758 146.168 674.215 153.071 677.325 158.022V166.355H688.227C683.438 164.755 679.841 162.028 677.325 158.022V114.223C677.325 106.51 675.792 101.693 672.758 98.9668V97.0811H669.688C668.279 96.5182 666.677 96.1943 664.883 96.0742C665.09 96.3941 665.268 96.7297 665.417 97.0811H660.211V96.1738C661.16 96.0714 662.152 96.0205 663.188 96.0205C663.77 96.0205 664.336 96.0376 664.883 96.0742C663.94 94.6187 662.39 93.499 660.211 92.7969V76.2686C660.502 76.1339 660.798 76.0025 661.098 75.875H672.758V75.2256ZM758.334 145.652C759.907 146.736 762.014 146.916 764.48 146.916C766.627 146.916 768.078 146.799 770.335 146.474V166.355H771.306C765.627 167.636 760.702 168.123 755.291 168.123C750.325 168.123 746.071 167.554 742.484 166.355H758.334V145.652ZM829.555 96.0205C838.921 96.0205 843.692 100.615 843.692 114.223V166.355H864.313C858.635 167.636 853.71 168.123 848.299 168.123C828.506 168.123 820.024 159.11 820.023 137.021V98.0869C822.597 96.6877 825.796 96.0206 829.555 96.0205ZM1009.14 166.179C1003.13 167.592 998.003 168.123 992.348 168.123C987.768 168.123 983.794 167.639 980.39 166.623C991.461 163.232 998.319 156.534 1000.49 146.902C1000.83 146.912 1001.18 146.916 1001.54 146.916C1004.19 146.916 1005.78 146.74 1009.14 146.21V166.179ZM1050.42 73.0469C1060.8 73.0469 1068.92 74.9294 1075.1 78.0771V103.619H1065.09C1064.73 100.66 1063.86 98.2618 1062.33 96.459V75.875H1049.12V92.5439C1042.64 92.9637 1039.82 95.6775 1039.82 99.7314C1039.82 103.446 1041.84 104.997 1046.6 106.394V97.0811H1049.12V107.065C1048.21 106.841 1047.37 106.618 1046.6 106.394V130.717C1047.5 130.914 1048.37 131.105 1049.22 131.292C1049.96 142.364 1054.69 146.209 1063.25 146.209C1063.52 146.209 1063.78 146.204 1064.04 146.197C1063.84 146.462 1063.63 146.714 1063.39 146.95V166.179C1057.38 167.592 1052.26 168.123 1046.6 168.123C1044.31 168.123 1042.17 168 1040.18 167.752C1028.32 164.083 1020.84 153.455 1020.84 137.02V136.312H1035.57C1036.46 145.325 1042.47 149.744 1053.25 149.744C1058.2 149.744 1061.52 148.799 1063.39 146.95V146.21C1060.03 146.74 1058.44 146.916 1055.79 146.916C1050.31 146.916 1046.6 146.033 1046.6 136.313V130.717C1045.5 130.474 1044.35 130.222 1043.17 129.951C1035.13 128.075 1026.96 125.521 1020.84 121.081V81.0947C1023.66 78.9556 1027.05 77.1962 1030.98 75.874H1046.6V73.1377C1047.85 73.0784 1049.12 73.0469 1050.42 73.0469ZM178.95 97.75C179.74 101.504 180.143 105.744 180.143 110.512V145.502C180.143 150.273 180.672 152.395 183.5 152.395C184.207 152.395 184.737 152.394 185.797 152.218V165.648C180.142 166.709 174.311 167.239 170.246 167.239C167.238 167.239 164.73 166.939 162.643 166.355H171.738V114.046C171.738 105.507 174.439 100.242 178.95 97.75ZM200.367 73.0469C205.04 73.0469 209.162 74.0655 212.657 75.874H197.719V86.4824C201.321 82.1328 206.406 78.55 213.182 76.1543C218.273 78.9548 221.979 83.4687 224.048 88.9521H224.401C224.931 88.3386 225.461 87.735 225.994 87.1426V88.9521H226.348C230.187 82.2683 237.346 76.0421 247.086 73.8652C247.003 73.8499 246.92 73.8333 246.836 73.8184C248.808 73.4103 250.921 73.1569 253.2 73.0762C251.064 73.1604 249.024 73.4322 247.086 73.8652C263.974 76.9792 273.152 87.7254 273.152 110.512V145.502C273.152 150.273 273.682 152.395 276.51 152.395C277.217 152.395 277.747 152.394 278.807 152.218V165.648C273.152 166.709 267.32 167.239 263.256 167.239C260.003 167.239 257.335 166.887 255.15 166.206V114.223C255.15 101.782 252.787 96.875 244.684 96.125C243.022 93.5069 239.417 91.9561 233.743 91.9561C223.317 91.9561 218.546 96.1973 217.662 105.033H198.59C198.362 103.93 198.075 102.944 197.719 102.065V86.4824C195.154 89.5791 193.344 93.0648 192.212 96.7891C190.617 96.2604 188.7 96.0205 186.406 96.0205C183.584 96.0205 181.068 96.58 178.95 97.75C177.958 93.0349 176.351 89.0886 174.16 85.8291C179.443 78.8349 188.492 73.0469 200.367 73.0469ZM435.047 105.402C435.158 107.034 435.215 108.736 435.215 110.512V145.502C435.215 150.273 435.745 152.395 438.572 152.395C439.279 152.395 439.809 152.394 440.869 152.218V165.648C435.214 166.709 429.383 167.239 425.318 167.239C422.312 167.239 419.805 166.939 417.718 166.356H426.809L431.045 166.355V109.67C432.195 108.038 433.542 106.615 435.047 105.402ZM517.939 156.544C518.834 158.095 519.894 159.52 521.108 160.812C522.66 163.537 525.114 165.444 528.931 166.439C524.97 166.971 521.206 167.239 518.328 167.239C513.404 167.239 509.82 166.435 507.226 164.9C511.451 162.726 515.058 159.844 517.939 156.544ZM598.462 100.086C598.857 100.086 599.238 100.095 599.613 100.109C600.116 103.257 600.373 106.717 600.373 110.512V145.502C600.373 150.273 600.903 152.395 603.73 152.395C604.437 152.395 604.967 152.394 606.027 152.218V165.648C600.373 166.709 594.541 167.239 590.477 167.239C587.469 167.239 584.961 166.939 582.873 166.355H591.967V114.046C591.967 107.639 593.581 103.076 596.595 100.144C597.214 100.105 597.837 100.086 598.462 100.086ZM100.878 160.812C103.139 163.219 105.936 165.16 109.203 166.563C105.098 165.608 102.496 163.655 100.878 160.812ZM353.547 73.6338C359.45 74.561 364.458 76.3651 368.515 79.2197C367.718 79.6774 366.955 80.1566 366.224 80.6553C368.421 83.0138 370.134 85.8253 371.313 88.9521H371.667C372.69 87.7661 373.716 86.6164 374.761 85.5146C377.272 89.1369 379.041 93.628 380.028 99.1045C378.352 100.544 377.045 102.508 376.163 105.033H379.725C379.857 103.714 380.075 102.497 380.386 101.382C380.764 104.183 380.959 107.222 380.959 110.512V113.304C378.861 113.797 376.818 114.333 374.848 114.928V166.355H363.805C363.961 166.426 364.117 166.496 364.275 166.563C363.996 166.499 363.724 166.43 363.459 166.355H363.805C360.739 164.97 358.102 163.103 355.95 160.812C355.069 159.265 354.479 157.455 354.097 155.398H353.743C353.433 155.786 353.111 156.167 352.781 156.544C350.594 152.751 349.395 148.218 349.332 143.1C352.091 139.474 353.567 134.725 353.567 129.774V128.104C358.022 121.703 365.654 117.701 374.848 114.928V114.046C374.848 110.484 375.304 107.492 376.163 105.033H352.862C352.899 104.323 352.957 103.617 353.033 102.916C353.378 102.065 353.567 101.126 353.567 100.085C353.567 99.9242 353.562 99.7654 353.554 99.6084C355.104 92.1646 359.149 85.4799 366.224 80.6553C362.997 77.1919 358.723 74.7053 353.547 73.6338ZM507.945 72.8701C518.693 72.8701 527.342 74.7649 533.673 79.2197C529.422 81.6623 526.11 84.7053 523.646 88.165C526.049 92.6341 527.527 98.2039 528.029 105.033H544.883C545.015 103.714 545.233 102.497 545.544 101.382C545.641 102.1 545.727 102.833 545.799 103.583V113.378C545.905 113.353 546.011 113.329 546.117 113.304V132.129C546.008 132.252 545.901 132.376 545.799 132.502V146.547C545.908 146.665 546.021 146.78 546.138 146.892C546.252 150.688 546.938 152.395 549.475 152.395C550.181 152.395 550.711 152.394 551.771 152.218V165.648C550.329 165.919 548.875 166.155 547.442 166.356H545.799V146.547C544.289 144.913 543.469 142.637 543.469 139.671C543.469 136.917 544.164 134.527 545.799 132.502V113.378C539.215 114.944 533.192 116.959 528.225 119.785V145.502C528.225 150.273 528.755 152.395 531.582 152.395C532.289 152.395 532.819 152.394 533.879 152.218V165.648C532.286 165.947 530.678 166.202 529.101 166.417C529.211 166.466 529.322 166.516 529.434 166.563C529.263 166.524 529.096 166.482 528.931 166.439C528.987 166.432 529.044 166.425 529.101 166.417C525.976 165.026 523.292 163.137 521.108 160.812C520.228 159.265 519.637 157.455 519.255 155.398H518.901C518.591 155.786 518.269 156.167 517.939 156.544C515.752 152.751 514.553 148.218 514.49 143.1C517.249 139.474 518.726 134.725 518.726 129.774V128.104C521.082 124.717 524.328 122.002 528.225 119.785V110.512C528.225 108.602 528.157 106.777 528.029 105.033H518.021C518.057 104.323 518.115 103.617 518.191 102.916C518.536 102.065 518.726 101.126 518.726 100.085C518.726 99.9242 518.72 99.7654 518.712 99.6084C519.568 95.5014 521.183 91.6255 523.646 88.165C520.797 82.8634 516.649 79.1121 511.284 76.6523V92.3672C509.945 92.0981 508.421 91.9561 506.708 91.9561C502.791 91.9561 499.671 92.5535 497.257 93.7695C495.284 92.6053 492.481 91.9561 488.815 91.9561C478.389 91.9561 473.618 96.1973 472.734 105.033H489.773C487.63 106.665 485.781 108.704 484.345 111.153C481.819 111.677 479.287 112.138 476.976 112.633C467.525 114.627 459.011 117.387 452.789 121.894V105.033H463.765C464.322 94.1137 469.587 84.1799 481.064 78.3281V90.7197H481.418C485.836 81.1768 493.612 75.168 503.508 75.168C504.996 75.168 506.357 75.1683 507.897 75.3223C505.133 74.4004 502.101 73.7536 498.812 73.3574C501.66 73.0381 504.702 72.8701 507.945 72.8701ZM415.908 75.875C420.568 78.0803 424.245 81.5491 426.809 86.1924V90.7197H427.162C427.459 90.0791 427.771 89.4547 428.098 88.8467C430.029 93.3929 431.045 98.8688 431.045 105.21V109.67C428.399 113.426 426.809 118.295 426.809 124.297V166.356L417.715 166.355C417.716 166.356 417.717 166.356 417.718 166.356H398.533V163.665C399.903 162.837 401.2 161.933 402.416 160.963V144.488C401.286 145.695 399.989 146.735 398.533 147.564V124.938C399.961 124.579 401.242 124.247 402.416 123.919V114.223C402.416 111.831 402.326 109.718 402.127 107.859C401.03 108.412 399.818 108.89 398.533 109.315V98.6221C400.567 100.489 401.657 103.462 402.127 107.859C405.522 106.15 407.823 103.743 407.823 100.085C407.823 95.7269 404.807 92.7412 398.533 92.0908V75.875H415.908ZM452.789 164.094C454.033 164.95 455.377 165.706 456.816 166.356H452.789V164.094ZM482.206 116.088C481.468 118.539 481.064 121.274 481.064 124.297V127.714C482.374 127.234 483.835 126.802 485.458 126.417C492.88 124.65 497.122 123.589 500.833 122.175V127.093C492.32 129.659 489.213 133.85 489.213 139.671C489.213 143.038 490.269 145.516 492.192 147.174C489.632 148.796 486.545 149.744 482.983 149.744C482.32 149.744 481.68 149.716 481.064 149.662V166.356H474.709C465.565 162.226 460.23 153.806 460.23 142.675C460.231 128.298 469.287 120.687 482.206 116.088ZM563.691 166.355H574.074L558.299 166.356C560.205 165.591 562.004 164.685 563.691 163.665V166.355ZM153.28 155.398C154.318 160.977 156.88 164.745 162.643 166.355H143.463V163.664C147.204 161.402 150.389 158.57 152.927 155.398H153.28ZM197.719 164.095C198.231 164.447 198.76 164.784 199.307 165.103V166.355H197.719V164.095ZM253.562 165.618C254.061 165.836 254.59 166.031 255.15 166.206V166.355H253.562V165.618ZM283.754 103.537C283.77 104.088 283.779 104.645 283.779 105.21V166.355H281.838V114.046C281.838 109.727 282.508 106.246 283.754 103.537ZM296.506 96.0205C297.856 96.0205 299.076 96.1035 300.177 96.2793C299.274 99.0789 298.76 102.018 298.606 105.033H308.689C309.196 107.489 309.406 110.523 309.406 114.223V119.453C300.698 124.217 295.072 131.344 295.072 142.675C295.072 153.747 300.35 162.139 309.406 166.292V166.355H290.729V96.9531C292.448 96.325 294.384 96.0205 296.506 96.0205ZM352.781 156.544C353.676 158.095 354.736 159.52 355.95 160.812C357.459 163.462 359.821 165.339 363.459 166.355H346.572V162.161C348.908 160.499 350.985 158.602 352.781 156.544ZM407.999 155.398C406.39 157.409 404.521 159.283 402.416 160.963V166.355H417.715C411.952 164.745 409.39 160.977 408.353 155.398H407.999ZM590.826 75.874C589.054 76.3295 587.374 76.9989 585.795 77.8633C588.123 79.1956 590.181 80.8191 591.967 82.7559V88.9521H592.32C592.934 87.8841 593.615 86.8279 594.37 85.7979C596.636 89.1575 598.275 93.2495 599.263 98.1621C598.279 98.7119 597.388 99.3714 596.595 100.144C584.62 100.888 574.074 108.838 574.074 124.297V157.735C575.372 162.036 577.956 164.982 582.873 166.355H574.074V157.735C573.851 156.996 573.663 156.217 573.511 155.398H573.157C570.619 158.571 567.433 161.403 563.691 163.665V147.564C569.672 144.159 572.981 137.191 572.981 129.774V122.175C570.425 123.149 567.617 123.953 563.691 124.938V109.315C568.953 107.572 572.981 104.926 572.981 100.085C572.981 95.7269 569.965 92.7412 563.691 92.0908V75.875H574.074V90.7197H574.428C577.089 84.9719 580.968 80.5061 585.795 77.8633C584.475 77.1079 583.069 76.4484 581.579 75.874H590.826ZM617.947 164.094C619.191 164.95 620.534 165.706 621.973 166.355H617.947V164.094ZM651.345 166.355H651.312C651.323 166.351 651.334 166.346 651.345 166.342V166.355ZM701.033 75.875H710.957L727.016 75.874L716.762 75.875V97.0811H727.016V137.021C727.016 144.516 727.995 150.505 730.059 155.148V166.355H717.048C717.304 166.298 717.563 166.24 717.822 166.179V146.21C714.786 146.689 713.194 146.877 710.957 146.909V97.0811H714.469V75.875H710.957V97.0811H704.923C702.178 81.5458 691.314 73.047 676.266 73.0469C675.056 73.0469 673.887 73.0898 672.758 73.1729V50.6035H701.033V75.875ZM758.334 74.416C757.275 74.7043 756.261 75.0336 755.291 75.4004V75.875H758.334V74.416C761.545 73.5421 765.175 73.0469 769.275 73.0469C772.484 73.0469 775.501 73.4349 778.291 74.1934C775.591 74.856 773.177 75.7823 771.02 76.9082V75.875H758.334V88.9521H758.688C761.349 84.3188 765.276 79.9052 771.02 76.9082V96.3506C769.979 96.524 768.998 96.7674 768.076 97.0811H762.697C763.589 97.4374 764.403 97.8909 765.14 98.4492C760.731 101.165 758.334 106.236 758.334 114.046V145.652C756.414 144.329 755.291 141.657 755.291 136.313V97.0811H762.697C760.859 96.3465 758.691 96.0205 756.197 96.0205C745.418 96.0206 739.232 101.499 739.232 114.046V165.001C740.249 165.519 741.332 165.97 742.484 166.355H739.232V165.001C735.084 162.887 732.06 159.652 730.059 155.148V75.874H739.232V88.9521H739.586C742.739 83.4628 747.669 78.2827 755.291 75.4004V50.6035H730.059V40H758.334V74.416ZM775.299 96.0205C779.041 96.0205 782.05 96.7547 784.314 98.5039V166.355H771.306C771.562 166.298 771.821 166.24 772.08 166.179V146.21C771.441 146.311 770.865 146.397 770.335 146.474V114.223C770.335 105.995 768.59 101.063 765.14 98.4492C766.036 97.8969 767.016 97.4418 768.076 97.0811H771.02V96.3506C772.352 96.1285 773.78 96.0205 775.299 96.0205ZM784.314 76.6016C793.21 81.4751 798.61 91.2464 798.61 105.21V166.355H789.437V114.223C789.437 106.053 787.716 101.132 784.314 98.5039V76.6016C782.454 75.5821 780.44 74.7776 778.291 74.1934C780.159 73.7349 782.163 73.4032 784.314 73.2178V76.6016ZM817.436 99.9365C817.617 101.621 817.712 103.38 817.712 105.21V166.355H812.59V114.046C812.59 107.486 814.281 102.859 817.436 99.9365ZM865.088 149.858C866.72 153.177 868.987 156.22 871.968 158.862V166.355H864.313C864.57 166.298 864.828 166.24 865.088 166.179V149.858ZM877.324 162.706C879.791 164.137 882.582 165.365 885.719 166.355H877.324V162.706ZM936.702 165.189C937.748 165.609 938.839 165.997 939.975 166.355H936.702V165.189ZM1080.22 116.479C1088.48 120.962 1094.25 127.841 1094.25 139.848C1094.25 149.268 1090.69 156.582 1083.89 161.552C1085.91 163.53 1088.24 165.136 1090.83 166.355H1080.22V163.84C1081.53 163.143 1082.76 162.38 1083.89 161.552C1082.52 160.209 1081.29 158.695 1080.22 157.014V153.277H1079.87C1079.57 153.786 1079.27 154.292 1078.94 154.794C1077.11 151.241 1075.89 147.062 1075.37 142.293C1078.53 139.37 1080.22 134.744 1080.22 128.184V116.479ZM1230.02 166.355H1227.92C1228.65 166.048 1229.35 165.722 1230.02 165.383V166.355ZM1268.79 107.617C1268.02 111.8 1267.61 116.309 1267.61 121.115C1267.61 125.92 1268.02 130.429 1268.79 134.611V166.355H1258.29V75.874H1255.76V166.355H1240.52V157.343H1240.17C1238.31 159.842 1234.81 162.969 1230.02 165.383V145.973C1236.41 142.384 1239.99 134.008 1239.99 121.115C1239.99 108.222 1236.41 99.8453 1230.02 96.2568V76.8467C1234.81 79.2605 1238.31 82.3874 1240.17 84.8867H1240.52V65.0947H1258.29V40H1268.79V107.617ZM1284.28 162.016C1286.61 163.776 1289.16 165.229 1291.91 166.355H1284.28V162.016ZM1312.55 94.3779C1313.28 94.2956 1314.03 94.2529 1314.8 94.2529C1315.01 94.2529 1315.21 94.2566 1315.42 94.2627C1314.42 94.392 1313.47 94.5894 1312.55 94.8525V94.3779C1302.44 95.5244 1296.59 104.628 1296.59 121.115C1296.59 137.602 1302.44 146.704 1312.55 147.851V147.376C1313.46 147.639 1314.42 147.836 1315.42 147.966C1315.21 147.972 1315 147.977 1314.8 147.977C1314.03 147.977 1313.28 147.933 1312.55 147.851V166.355H1299.24C1293.47 164.331 1288.45 161.329 1284.28 157.488V85.0381C1288.55 81.0651 1293.71 77.9551 1299.67 75.874H1312.55V94.3779ZM1345.23 162.494C1347.78 164.026 1350.54 165.318 1353.5 166.355H1336.92C1339.89 165.318 1342.67 164.024 1345.23 162.494ZM1405.56 166.355H1391.18C1396.68 164.435 1401.5 161.638 1405.56 158.093V166.355ZM936.702 165.189C935.514 164.713 934.385 164.198 933.31 163.648C934.518 162.988 935.649 162.27 936.702 161.495V165.189ZM197.719 164.095C191.055 159.509 187.266 152.055 187.266 142.675C187.266 133.132 191.257 126.571 197.719 121.893V164.095ZM452.789 164.094C446.126 159.508 442.338 152.054 442.338 142.675C442.338 133.133 446.328 126.572 452.789 121.894V164.094ZM617.947 164.094C611.284 159.508 607.496 152.054 607.496 142.675C607.496 133.133 611.487 126.572 617.947 121.894V164.094ZM877.324 162.706C875.331 161.55 873.549 160.263 871.968 158.862V136.312H877.324V162.706ZM1345.62 79.7275C1352.65 83.9387 1358.07 89.9474 1361.64 97.3506C1355.92 101.52 1352.85 109.594 1352.85 121.115C1352.85 132.517 1355.86 140.54 1361.47 144.746C1357.83 152.19 1352.34 158.25 1345.23 162.494C1338.23 158.288 1332.82 152.289 1329.24 144.89C1334.93 140.724 1338 132.648 1338 121.115C1338 109.673 1334.98 101.633 1329.38 97.4385C1333.02 90.0172 1338.51 83.967 1345.62 79.7275ZM1284.28 85.0381C1275.03 93.6398 1269.97 106.286 1269.97 121.292C1269.97 136.434 1275.06 149.004 1284.28 157.488V162.016C1276.44 156.103 1271.04 146.727 1268.79 134.611V107.617C1271.04 95.5016 1276.44 86.1252 1284.28 80.2129V85.0381ZM942.564 136.312C942.945 140.191 944.275 143.218 946.525 145.409C945.377 152.155 942.054 157.556 936.702 161.495V136.312H942.564ZM99.0244 155.398C99.407 157.455 99.9972 159.265 100.878 160.812C99.664 159.52 98.6033 158.095 97.709 156.544C98.0383 156.167 98.3607 155.786 98.6709 155.398H99.0244ZM1405.56 83.8174C1412.15 89.4758 1416.78 97.1126 1419.12 106.214C1417.88 110.889 1417.23 115.941 1417.23 121.292C1417.23 126.491 1417.84 131.386 1419 135.917C1416.62 144.869 1412.05 152.434 1405.56 158.093V83.8174ZM865.088 149.858C864.54 148.744 864.063 147.599 863.656 146.428C864.098 146.362 864.573 146.291 865.088 146.21V149.858ZM338.035 149.603C337.287 149.694 336.514 149.744 335.718 149.744C328.472 149.744 324.055 146.563 324.055 139.671C324.055 133.341 327.729 128.936 338.035 126.455V149.603ZM518.726 128.104C516.021 131.99 514.486 136.759 514.486 142.675C514.486 142.817 514.489 142.958 514.49 143.1C511.438 147.11 506.816 149.744 500.876 149.744C497.17 149.744 494.206 148.909 492.192 147.174C497.762 143.645 500.833 136.918 500.833 129.774V127.093C501.625 126.854 502.463 126.628 503.351 126.417C510.773 124.65 515.014 123.589 518.726 122.175V128.104ZM563.691 147.564C561.264 148.947 558.397 149.744 555.132 149.744C551.23 149.744 548.151 148.819 546.138 146.892C546.125 146.456 546.117 145.993 546.117 145.502V132.129C548.304 129.658 551.975 127.753 557.606 126.417C559.916 125.867 561.918 125.383 563.691 124.938V147.564ZM944.819 128.587C946.592 129.083 948.381 129.535 950.164 129.951C955.631 131.207 960.387 132.095 964.072 133.294V137.021C964.072 141.141 964.369 144.807 964.978 148.044V149.375C963.605 149.62 962.028 149.744 960.237 149.744C954.096 149.744 949.504 148.309 946.525 145.409C946.825 143.646 946.98 141.792 946.98 139.848C946.98 135.451 946.204 131.743 944.819 128.587ZM877.324 123.445C882.839 126.479 889.417 128.437 895.908 129.951C899.474 130.77 902.738 131.433 905.6 132.127V149.738C895.059 149.635 889.182 145.218 888.309 136.312H877.324V123.445ZM225.994 127.713C218.894 130.313 216.248 134.299 216.248 139.671C216.248 145.932 219.894 149.129 225.994 149.662V127.713ZM481.064 127.714C473.966 130.314 471.32 134.3 471.32 139.671C471.32 145.931 474.966 149.129 481.064 149.662V127.714ZM646.223 127.714C639.124 130.314 636.479 134.3 636.479 139.671C636.479 145.931 640.124 149.129 646.223 149.662V127.714ZM951.525 77.084C957.126 80.4342 961.241 85.819 963.36 93.0479C968.873 94.3638 971.388 97.9707 972.077 103.619H992.348V119.882C985.539 114.329 975.655 111.636 965.715 109.274C965.466 109.216 965.22 109.161 964.978 109.104V133.603C969.558 135.246 972.254 137.523 972.254 141.968C972.254 145.916 970.051 148.394 965.241 149.324C965.148 148.905 965.059 148.479 964.978 148.044V133.603C964.684 133.497 964.382 133.395 964.072 133.294V108.896C964.37 108.964 964.671 109.034 964.978 109.104V105.21C964.978 100.713 964.417 96.6516 963.36 93.0479C961.802 92.6758 960.004 92.4863 957.939 92.4863C955.31 92.4863 953.186 92.8111 951.525 93.4102V77.084ZM1327.84 141.677C1328.27 142.775 1328.74 143.846 1329.24 144.89C1326.3 147.043 1322.66 148.153 1318.39 148.153C1317.36 148.153 1316.37 148.09 1315.42 147.966C1320.65 147.812 1324.86 145.692 1327.84 141.677ZM1465.65 94.0762C1452.93 94.0762 1445.86 103.62 1445.86 121.115C1445.86 138.61 1452.93 148.153 1465.65 148.153C1478.2 148.153 1485.27 138.61 1485.27 121.115C1485.27 103.62 1478.2 94.0763 1465.65 94.0762ZM1227.49 95.1348C1228.37 95.4335 1229.22 95.8073 1230.02 96.2568V145.973C1227.65 147.303 1224.89 147.977 1221.79 147.977C1219.1 147.977 1216.68 147.475 1214.54 146.479V145.919C1222.82 144.642 1227.49 139.078 1227.49 128.184V95.1348ZM1168.11 94.2607C1172.19 94.3724 1175.64 95.6755 1178.38 98.1357C1175.92 104.709 1174.6 112.428 1174.6 121.115C1174.6 129.802 1175.92 137.52 1178.38 144.093C1175.93 146.294 1172.91 147.568 1169.37 147.892C1168.54 144.617 1168.11 140.988 1168.11 137.02V94.2607ZM1377.29 94.5645C1386.92 96.7117 1392.26 105.909 1392.26 121.115C1392.26 136.321 1386.92 145.517 1377.29 147.664V94.5645ZM152.75 129.774C152.75 137.19 149.442 144.157 143.463 147.563V124.937C147.387 123.952 150.194 123.148 152.75 122.175V129.774ZM1312.55 147.376C1303.52 144.779 1298.6 135.719 1298.6 121.115C1298.6 106.511 1303.52 97.449 1312.55 94.8525V147.376ZM1162.75 147.373C1154.2 145.069 1149.33 136.172 1149.33 121.115C1149.33 106.058 1154.2 97.1605 1162.75 94.8564V147.373ZM863.907 97.0811C863.683 98.507 863.568 99.981 863.568 101.499C863.568 109.748 866.88 115.574 871.968 119.828V136.312H861.801C861.941 139.814 862.541 143.219 863.656 146.428C861.217 146.788 859.732 146.916 857.488 146.916C852.01 146.916 848.299 146.033 848.299 136.313V97.0811H863.907ZM992.348 119.882C997.765 124.3 1001.24 130.529 1001.24 139.848C1001.24 142.349 1000.98 144.702 1000.49 146.902C995.59 146.763 992.348 145.398 992.348 136.313V119.882ZM125.887 145.502C125.887 145.993 125.894 146.456 125.907 146.892C124.181 145.24 123.238 142.852 123.238 139.671C123.238 136.745 124.025 134.232 125.887 132.129V145.502ZM380.959 145.502C380.959 145.993 380.966 146.456 380.979 146.892C379.254 145.24 378.311 142.852 378.311 139.671C378.311 136.745 379.097 134.232 380.959 132.129V145.502ZM704.923 97.0811C705.369 99.6068 705.601 102.319 705.601 105.21V146.393C702.762 145.462 701.033 142.946 701.033 136.313V97.0811H704.923ZM1139.61 75.874H1134.48V82.3184C1125.49 90.5553 1120.35 103.944 1120.35 121.115C1120.35 130.297 1121.82 138.396 1124.56 145.205C1122.5 145.881 1120.14 146.209 1117.51 146.209C1115.38 146.209 1113.49 145.969 1111.83 145.441C1111.5 142.877 1111.34 140.074 1111.34 137.021V97.0811H1108.5V75.875H1111.34V50.6035H1139.61V75.874ZM1049.12 107.065C1051.7 107.704 1054.88 108.376 1058.72 109.274C1064.39 110.62 1070.03 112.073 1075.1 114.1V137.02C1075.1 138.85 1075.19 140.608 1075.37 142.293C1072.64 144.824 1068.81 146.076 1064.04 146.197C1064.86 145.056 1065.26 143.646 1065.26 141.968C1065.26 135.164 1058.95 133.436 1049.22 131.292C1049.15 130.261 1049.12 129.166 1049.12 128.007V107.065ZM353.567 128.104C350.862 131.99 349.328 136.759 349.328 142.675C349.328 142.817 349.33 142.958 349.332 143.1C348.521 144.165 347.6 145.134 346.572 145.981V124.347C349.351 123.612 351.539 122.948 353.567 122.175V128.104ZM1361.8 144.99C1361.69 144.91 1361.58 144.829 1361.47 144.746C1361.58 144.513 1361.69 144.277 1361.8 144.041V144.99ZM916.078 136.736C917.324 138.067 917.998 139.746 917.998 141.968C917.998 143.095 917.818 144.102 917.449 144.988C916.668 142.339 916.222 139.571 916.078 136.736ZM407.823 122.175C406.197 122.794 404.469 123.346 402.416 123.919V144.488C405.928 140.739 407.823 135.385 407.823 129.774V122.175ZM1361.8 97.6826C1364.96 104.356 1366.63 112.145 1366.63 120.762C1366.63 129.418 1364.97 137.281 1361.8 144.041V97.6826ZM1108.5 143.724C1105.09 141.095 1103.37 136.176 1103.37 128.007V97.0811H1108.5V143.724ZM98.4941 129.774C98.4941 134.725 97.0186 139.474 94.2598 143.1C94.258 142.958 94.2559 142.817 94.2559 142.675C94.2559 136.76 95.7897 131.99 98.4941 128.104V129.774ZM1327.94 100.687C1331.22 105.192 1333 112.033 1333 121.115C1333 130.288 1331.19 137.174 1327.84 141.677C1325.47 135.632 1324.22 128.776 1324.22 121.292C1324.22 113.758 1325.5 106.818 1327.94 100.687ZM906.166 108.068C907.769 108.43 909.531 108.824 911.459 109.274C914.255 109.939 917.046 110.63 919.766 111.402C922.827 118.404 929.207 122.818 936.702 125.862V118.817C940.205 121.339 943.025 124.499 944.819 128.587C942.041 127.81 939.304 126.919 936.702 125.862V136.312H916.057C916.062 136.454 916.071 136.595 916.078 136.736C914.009 134.526 910.363 133.282 905.6 132.127V114.046C905.6 111.837 905.791 109.848 906.166 108.068ZM1018.33 119.04C1019.12 119.762 1019.96 120.441 1020.84 121.081V136.312H1018.33V119.04ZM143.463 124.937C141.689 125.382 139.687 125.867 137.376 126.417C131.744 127.753 128.073 129.658 125.887 132.129V113.304C126.877 113.071 127.88 112.847 128.894 112.633C133.475 111.651 138.928 110.818 143.463 109.315V124.937ZM398.533 124.938C396.759 125.383 394.758 125.867 392.448 126.417C386.816 127.753 383.146 129.658 380.959 132.129V113.304C381.949 113.071 382.952 112.847 383.966 112.633C388.547 111.651 393.998 110.818 398.533 109.315V124.938ZM346.354 108.55C346.504 110.237 346.572 112.122 346.572 114.223V124.347C344.268 124.956 341.558 125.616 338.192 126.417C338.14 126.429 338.087 126.443 338.035 126.455V110.953C340.981 110.319 343.876 109.574 346.354 108.55ZM877.324 123.445C875.391 122.382 873.59 121.184 871.968 119.828V105.21C871.968 97.981 870.519 91.8763 867.889 86.9922C870.168 83.6855 873.329 80.8732 877.324 78.6592V123.445ZM622.014 105.033C622.716 107.489 623.069 110.523 623.069 114.223V118.803C621.231 119.733 619.516 120.757 617.947 121.894V105.033H622.014ZM198.59 105.033C199.097 107.489 199.307 110.523 199.307 114.223V120.811C198.762 121.159 198.233 121.52 197.719 121.893V105.033H198.59ZM1018.33 119.04C1013.76 114.861 1010.83 109.249 1010.83 101.499C1010.83 99.981 1010.95 98.507 1011.17 97.0811H1018.33V119.04ZM935.181 103.619C936.193 106.295 936.702 109.778 936.702 114.223V118.817C932.002 115.433 926.077 113.195 919.766 111.402C918.76 109.102 918.114 106.522 917.902 103.619H935.181ZM1080.22 116.479C1078.6 115.601 1076.88 114.814 1075.1 114.1V103.619H1080.22V116.479ZM511.284 92.3672C516.096 93.3341 518.52 95.9515 518.712 99.6084C518.485 100.696 518.313 101.8 518.191 102.916C515.551 109.433 503.621 110.757 494.868 112.633C490.389 113.578 486.12 114.694 482.206 116.088C482.748 114.29 483.47 112.646 484.345 111.153C492.485 109.464 500.541 107.079 500.823 100.447C502.337 100.206 503.887 100.086 505.452 100.086C507.396 100.086 508.987 100.263 511.284 100.616V92.3672ZM333.672 96.0205C334.993 96.0205 336.189 96.0996 337.271 96.2676C337.776 99.022 338.035 102.006 338.035 105.21V110.953C335.197 111.564 332.313 112.075 329.71 112.633C325.966 113.423 322.369 114.333 319.004 115.424V114.046C319.004 110.484 319.474 107.492 320.35 105.033H325.469C325.811 101.614 326.735 98.8839 328.343 96.8203C329.956 96.2814 331.743 96.0205 333.672 96.0205ZM560.964 91.9561C561.933 91.9561 562.842 92.0028 563.691 92.0908V109.315C559.156 110.818 553.705 111.651 549.124 112.633C548.11 112.847 547.108 113.071 546.117 113.304V110.512C546.117 108.065 546.009 105.757 545.799 103.583V100.551C547.751 94.7576 552.49 91.9561 560.964 91.9561ZM143.463 92.0908C149.735 92.7417 152.75 95.7273 152.75 100.085C152.75 104.925 148.724 107.572 143.463 109.315V92.0908ZM951.525 97.0811H964.072V108.896C951.679 106.056 946.806 105.492 946.806 99.7314C946.806 96.8079 948.277 94.5822 951.525 93.4102V97.0811ZM341.55 91.9561C349.415 91.9561 353.309 94.9336 353.554 99.6084C353.327 100.696 353.155 101.8 353.033 102.916C351.993 105.483 349.514 107.243 346.354 108.55C345.655 100.74 343.164 97.1829 337.271 96.2676C337.023 94.9195 336.715 93.6269 336.352 92.3896C337.9 92.0995 339.629 91.9561 341.55 91.9561ZM903.684 92.4863C909.612 92.4863 913.345 94.044 915.511 97.0244C910.618 98.6309 907.4 102.209 906.166 108.068C896.456 105.88 892.55 104.888 892.55 99.7314C892.55 95.3136 895.908 92.4863 903.684 92.4863ZM449.252 75.168C451.726 75.168 453.847 75.1681 457.028 75.875H452.789V86.4854C454.025 84.993 455.435 83.5916 457.028 82.2969V100.616C455.383 100.363 454.099 100.202 452.789 100.13V86.4854C449.396 90.584 447.321 95.3635 446.396 100.476C442.187 101.174 438.262 102.811 435.047 105.402C434.507 97.445 432.657 91.1778 429.579 86.3574C434.166 79.3829 440.964 75.168 449.252 75.168ZM87.7148 72.8701C98.4621 72.8701 107.112 74.7649 113.442 79.2197C104.939 84.1053 100.192 91.3952 98.4814 99.6084C98.2366 94.9336 94.3425 91.9561 86.4775 91.9561C76.0511 91.9561 71.2801 96.1973 70.3965 105.033H43.5342C44.4178 87.7146 57.1422 72.8701 87.7148 72.8701ZM192.212 96.7891C194.861 97.6672 196.616 99.3455 197.719 102.065V105.033H190.8C190.944 102.201 191.408 99.435 192.212 96.7891ZM342.787 72.8701C344.715 72.8701 346.575 72.9299 348.366 73.0557C348.123 73.0501 347.879 73.0469 347.633 73.0469C339.831 73.0469 333.249 75.5451 328.153 79.2422C331.949 82.4483 334.725 86.8598 336.352 92.3896C332.748 93.065 330.125 94.5331 328.343 96.8203C324.665 98.0489 321.884 100.722 320.35 105.033H308.689C307.582 99.6674 305.054 97.0582 300.177 96.2793C302.826 88.0672 308.835 81.0631 319.004 76.9111V88.9521H319.357C321.393 85.4085 324.362 81.9933 328.153 79.2422C326.453 77.8056 324.548 76.611 322.45 75.667C328.093 73.8765 334.836 72.8701 342.787 72.8701ZM451.196 100.086C451.748 100.086 452.27 100.101 452.789 100.13V105.033H445.872C445.951 103.491 446.125 101.969 446.396 100.476C447.964 100.215 449.571 100.086 451.196 100.086ZM490.627 105.033H489.773C490.078 104.802 490.387 104.578 490.703 104.362C490.675 104.583 490.65 104.807 490.627 105.033ZM612.594 96.3027C614.691 96.6591 616.476 97.3681 617.947 98.5049V105.033H611.03C611.184 102.027 611.695 99.0953 612.594 96.3027ZM655.211 72.8701C659.671 72.8701 663.769 73.1974 667.491 73.8975C665.164 74.3787 663.038 75.0504 661.098 75.875H660.211V76.2686C654.412 78.9499 650.339 83.029 647.499 87.4355C647.101 86.6654 646.677 85.9239 646.223 85.2129V75.874H635.615C639.967 77.9215 643.569 81.0577 646.223 85.2129V88.9521H646.576C646.868 88.4436 647.176 87.9372 647.499 87.4355C648.273 88.9358 648.94 90.5468 649.489 92.2676C642.15 93.3941 638.638 97.5793 637.893 105.033H622.014C621.166 102.066 619.808 99.9428 617.947 98.5049V86.4854C615.496 89.4463 613.733 92.7622 612.594 96.3027C611.463 96.1107 610.242 96.0205 608.932 96.0205C607.275 96.0205 605.728 96.1496 604.294 96.4141V77.0977C608.905 74.6117 614.711 73.0469 622.01 73.0469C626.826 73.0469 631.214 73.9198 635.044 75.6133C634.772 75.6984 634.503 75.7853 634.236 75.874H617.947V86.4854C621.694 81.96 627.047 78.2666 634.236 75.874H635.615C635.426 75.7851 635.236 75.6981 635.044 75.6133C640.652 73.8563 647.339 72.8701 655.211 72.8701ZM497.257 93.7695C499.659 95.1868 500.833 97.3684 500.833 100.085C500.833 100.207 500.828 100.328 500.823 100.447C497.144 101.034 493.676 102.336 490.703 104.362C491.352 99.2137 493.409 95.7072 497.257 93.7695ZM930.255 79.4355C939.617 85.1965 943.805 94.1903 944.329 103.619H935.181C933.094 98.1039 928.871 96.0205 922.564 96.0205C921.046 96.0205 919.619 96.1279 918.288 96.3496C917.98 98.0013 917.824 99.72 917.824 101.499C917.824 102.224 917.852 102.931 917.902 103.619H917.821C917.497 100.96 916.767 98.7529 915.511 97.0244C916.384 96.7377 917.31 96.5125 918.288 96.3496C919.599 89.3135 923.672 83.4978 930.255 79.4355ZM997.589 97.0811C998.136 99.2123 998.462 101.404 998.585 103.619H992.348V97.0811H997.589ZM1080.22 81.292C1087.7 87.0317 1091.12 95.1499 1091.59 103.619H1080.22V81.292ZM290.729 96.9531C287.658 98.0745 285.276 100.229 283.754 103.537C283.569 97.1766 282.323 91.736 280.118 87.2871C283.392 83.6338 286.77 80.4044 290.729 77.9482V96.9531ZM98.4814 99.6084C98.4897 99.7654 98.4941 99.9242 98.4941 100.085C98.4941 101.126 98.3057 102.065 97.9609 102.916C98.0827 101.8 98.2549 100.696 98.4814 99.6084ZM381.929 97.7793C381.272 98.8336 380.762 100.034 380.386 101.382C380.281 100.604 380.162 99.8455 380.028 99.1045C380.617 98.5987 381.251 98.1577 381.929 97.7793ZM562.201 72.8701C569.71 72.8701 576.194 73.7975 581.579 75.874L563.691 75.875H545.799V100.551C545.708 100.821 545.623 101.098 545.544 101.382C544.128 90.8951 540.096 83.7395 533.673 79.2197C540.577 75.2527 549.957 72.8701 562.201 72.8701ZM141.971 72.8701C149.479 72.8701 155.963 73.7975 161.349 75.874H143.463V92.0908C142.613 92.0026 141.703 91.9561 140.733 91.9561C131.864 91.9561 127.086 95.0254 125.313 101.382C123.898 90.8951 119.865 83.7395 113.442 79.2197C120.347 75.2527 129.727 72.8701 141.971 72.8701ZM1318.39 94.0762C1322.73 94.0762 1326.42 95.2194 1329.38 97.4385C1328.86 98.4938 1328.38 99.577 1327.94 100.687C1324.95 96.5854 1320.71 94.4197 1315.42 94.2627C1316.37 94.1394 1317.36 94.0762 1318.39 94.0762ZM604.294 100.616C602.464 100.335 601.082 100.167 599.613 100.109C599.507 99.4464 599.39 98.7975 599.263 98.1621C600.735 97.3394 602.416 96.7604 604.294 96.4141V100.616ZM653.974 91.9561C656.44 91.9561 658.516 92.2507 660.211 92.7969V96.1738C656.444 96.5804 653.368 97.8057 651.068 99.9365C650.772 97.181 650.24 94.6223 649.489 92.2676C650.85 92.0587 652.343 91.9561 653.974 91.9561ZM820.023 98.0869C819.075 98.6027 818.211 99.218 817.436 99.9365C817.33 98.9599 817.198 98.0079 817.034 97.0811H820.023V98.0869ZM395.806 91.9561C396.775 91.9561 397.684 92.0028 398.533 92.0908V98.6221C396.535 96.7877 393.63 96.0205 389.516 96.0205C386.613 96.0205 384.058 96.5894 381.929 97.7793C384.368 93.8614 388.817 91.9561 395.806 91.9561ZM1361.8 97.6826C1361.75 97.5716 1361.7 97.461 1361.64 97.3506C1361.7 97.3124 1361.75 97.2758 1361.8 97.2383V97.6826ZM1372.82 72.8701C1379.74 72.8702 1386.04 73.9159 1391.62 75.874H1377.29V94.5645C1375.83 94.2412 1374.29 94.0762 1372.64 94.0762C1368.38 94.0762 1364.75 95.1512 1361.8 97.2383V73.8203C1365.27 73.1951 1368.95 72.8701 1372.82 72.8701ZM807.477 79.3691C809.438 81.0111 811.153 82.9628 812.59 85.2129V88.9521H812.943C813.236 88.4436 813.543 87.9372 813.866 87.4355C815.325 90.2612 816.398 93.4818 817.034 97.0811H807.477V79.3691ZM864.027 97.0811H863.907C863.944 96.8463 863.984 96.613 864.027 96.3809V97.0811ZM992.348 75.875H1005.78V97.0811H997.589C994.524 85.1451 984.498 75.1016 964.072 73.3262V50.6035H992.348V75.875ZM1046.6 73.1377C1040.71 73.4192 1035.49 74.3599 1030.98 75.874H1020.84V81.0947C1015.47 85.1747 1012.19 90.6352 1011.17 97.0811H1008.08V75.875H1018.33V50.6035H1046.6V73.1377ZM1050.95 92.4863C1056.49 92.4863 1060.11 93.8473 1062.33 96.459V97.0811H1049.12V92.5439C1049.7 92.5063 1050.31 92.4863 1050.95 92.4863ZM1103.37 75.875V97.0811H1098.79V75.875H1103.37ZM864.027 81.5557C865.505 83.1534 866.798 84.9677 867.889 86.9922C865.961 89.7889 864.664 92.9391 864.027 96.3809V81.5557ZM242.25 96.0205C243.114 96.0205 243.924 96.0547 244.684 96.125C244.734 96.2052 244.786 96.285 244.833 96.3672C243.839 96.1759 242.742 96.0676 241.534 96.0332C241.77 96.0253 242.009 96.0205 242.25 96.0205ZM1214.54 73.0508C1219.59 73.1244 1224.1 74.2504 1227.92 75.874H1227.49V95.1348C1225.75 94.5497 1223.84 94.2529 1221.79 94.2529C1219.1 94.2529 1216.68 94.755 1214.54 95.75V73.0508ZM1159.75 73.0469C1165.02 73.0469 1169.71 74.1941 1173.67 75.874H1168.11V94.2607C1167.92 94.2555 1167.72 94.2529 1167.53 94.2529C1165.83 94.2529 1164.24 94.4563 1162.75 94.8564V75.874H1144.64C1144.64 75.8744 1144.64 75.8746 1144.64 75.875L1139.61 75.874H1144.64C1149.17 74.0197 1154.23 73.0469 1159.75 73.0469ZM171.738 82.7588C172.611 83.7062 173.42 84.7277 174.16 85.8291C173.39 86.8492 172.699 87.895 172.092 88.9521H171.738V82.7588ZM254.797 73.0469C266.763 73.0469 275.521 78.0113 280.118 87.2871C279.629 87.8327 279.143 88.3888 278.657 88.9521H278.304C274.777 79.6063 266.499 73.0753 254.7 73.0469C254.732 73.0468 254.765 73.0469 254.797 73.0469ZM905.6 73.084C911.662 73.2636 916.904 74.1147 921.399 75.499C913.924 78.3999 909.071 83.5251 905.953 88.9521H905.6V73.084ZM426.809 82.7559C427.821 83.8538 428.745 85.0519 429.579 86.3574C429.056 87.1522 428.562 87.9823 428.098 88.8467C427.705 87.9233 427.276 87.0384 426.809 86.1924V82.7559ZM848.299 73.4785C846.487 73.1926 844.596 73.0469 842.633 73.0469C827.536 73.0469 818.824 79.7437 813.866 87.4355C813.469 86.6654 813.044 85.9239 812.59 85.2129V75.875H820.023V50.6035H848.299V73.4785ZM234.98 72.8701C239.271 72.8701 243.228 73.172 246.836 73.8184C237.828 75.6821 231.743 80.7531 225.994 87.1426V75.874H214.006C219.776 73.9539 226.728 72.8701 234.98 72.8701ZM596.518 75.168C598.992 75.168 601.113 75.1681 604.294 75.875V77.0977C600.051 79.3851 596.821 82.453 594.37 85.7979C593.635 84.7073 592.833 83.6951 591.967 82.7559V75.874H590.826C592.631 75.4101 594.532 75.168 596.518 75.168ZM397.043 72.8701C398.946 72.8701 400.783 72.9293 402.553 73.0518C402.39 73.0499 402.226 73.0469 402.062 73.0469C389.325 73.0469 381.652 78.2445 374.761 85.5146C373.028 83.015 370.943 80.9284 368.515 79.2197C375.419 75.2527 384.799 72.8701 397.043 72.8701ZM1186.26 84.8232C1186.24 84.8442 1186.23 84.8657 1186.21 84.8867H1185.91C1183.8 82.036 1179.54 78.3673 1173.67 75.874H1186.26V84.8232ZM1318.57 72.8701C1323.94 72.8701 1328.94 73.5038 1333.53 74.7041V84.8867H1333.17C1330.03 80.6368 1322.11 74.5638 1311.18 73.2871C1313.55 73.013 1316.02 72.8701 1318.57 72.8701ZM1405.56 83.8174C1401.6 80.4182 1396.93 77.7343 1391.62 75.874H1405.56V83.8174ZM171.738 82.7588C168.94 79.7227 165.466 77.4618 161.349 75.874H171.738V82.7588ZM426.809 82.7559C424.011 79.7217 420.539 77.4623 416.424 75.875H426.809V82.7559ZM469.075 75.875C464.258 77.4785 460.266 79.6661 457.028 82.2969V75.875H469.075ZM864.027 81.5557C861.822 79.1712 859.206 77.2703 856.241 75.875H864.027V81.5557ZM1080.22 81.292C1078.69 80.1146 1076.98 79.0369 1075.1 78.0771V75.874H1080.22V81.292ZM1307.02 73.0469C1308.45 73.0469 1309.84 73.1304 1311.18 73.2871C1307.07 73.7615 1303.23 74.6342 1299.67 75.874H1291.91C1289.16 77.0006 1286.61 78.4528 1284.28 80.2129V75.874H1291.91C1296.44 74.0197 1301.5 73.0469 1307.02 73.0469ZM1361.8 73.8203C1355.75 74.9132 1350.33 76.9242 1345.62 79.7275C1342.01 77.5563 1337.96 75.8649 1333.53 74.7041V40H1361.8V73.8203ZM935.643 73.0469C938.817 73.0469 941.805 73.4262 944.57 74.1689C938.95 75.2319 934.161 77.0253 930.255 79.4355C927.699 77.8628 924.757 76.5329 921.399 75.499C925.365 73.9602 930.069 73.0469 935.643 73.0469ZM812.59 75.875H807.477V79.3691C802.517 75.2175 795.981 73.047 788.377 73.0469C786.968 73.0469 785.614 73.1058 784.314 73.2178V40H812.59V75.875ZM905.6 73.084C904.799 73.0603 903.983 73.0469 903.153 73.0469C892.487 73.0469 883.808 75.0656 877.324 78.6592V40H905.6V73.084ZM490.053 72.8701C493.148 72.8701 496.069 73.0272 498.812 73.3574C491.738 74.1503 485.859 75.8834 481.064 78.3281V75.875H469.075C474.846 73.9543 481.798 72.8701 490.053 72.8701ZM294.647 75.874C293.274 76.4821 291.972 77.1766 290.729 77.9482V75.874H294.647ZM957.409 73.0469C959.744 73.0469 961.963 73.1429 964.072 73.3262V75.875H951.525V77.084C949.41 75.8182 947.082 74.8436 944.57 74.1689C948.458 73.4337 952.744 73.0469 957.409 73.0469ZM309.053 73.0469C314.117 73.0469 318.607 73.9378 322.45 75.667C321.252 76.0472 320.104 76.4621 319.004 76.9111V75.874H294.647C298.695 74.0822 303.37 73.0469 309.053 73.0469ZM1230.02 76.8467C1229.35 76.5073 1228.65 76.1814 1227.92 75.874H1230.02V76.8467ZM507.897 75.3223C509.075 75.7149 510.204 76.1572 511.284 76.6523V75.875C510.017 75.5934 508.918 75.4242 507.897 75.3223ZM214.006 75.874C213.729 75.9663 213.453 76.0582 213.182 76.1543C213.008 76.059 212.834 75.9653 212.657 75.874H214.006ZM413.688 74.9453C414.63 75.2248 415.541 75.5346 416.424 75.875H415.908C415.191 75.5356 414.452 75.2245 413.688 74.9453ZM848.299 73.4785C851.157 73.9296 853.815 74.7332 856.241 75.875H848.299V73.4785ZM730.059 75.874H727.016V50.6035H730.059V75.874ZM672.758 75.2256C671.096 74.6872 669.341 74.2454 667.491 73.8975C669.143 73.5559 670.897 73.3098 672.758 73.1729V75.2256ZM402.553 73.0518C406.664 73.0988 410.389 73.7382 413.688 74.9453C410.341 73.9512 406.624 73.3334 402.553 73.0518ZM348.366 73.0557C350.18 73.0976 351.909 73.2947 353.547 73.6338C351.89 73.3735 350.163 73.1817 348.366 73.0557ZM254.7 73.0469C254.192 73.0479 253.692 73.0587 253.2 73.0762C253.67 73.0577 254.144 73.0469 254.623 73.0469C254.649 73.0469 254.674 73.0468 254.7 73.0469ZM1240.52 65.0947H1230.02V40H1240.52V65.0947ZM1312.55 65.0947H1284.28V40H1312.55V65.0947ZM1405.56 65.0947H1377.29V40H1405.56V65.0947Z" fill="black"/>
</svg>
